<svg xmlns="http://www.w3.org/2000/svg" xmlns:xlink="http://www.w3.org/1999/xlink" width="342" height="330" viewBox="0 0 342 330">
    <defs>
        <path id="a" d="M0 0h24v24H0z"/>
    </defs>
    <g fill="none" fill-rule="evenodd">
        <g fill="#D0021B" fill-rule="nonzero">
            <path d="M27.547 261.52a2.14 2.14 0 0 0 2.352 1.905 2.138 2.138 0 0 0 1.911-2.344l-.988-9.531a2.142 2.142 0 0 0-2.352-1.905 2.138 2.138 0 0 0-1.911 2.344l.988 9.53zM40.957 263.425a2.14 2.14 0 0 0 2.352-1.905l.988-9.531a2.137 2.137 0 0 0-1.911-2.344 2.142 2.142 0 0 0-2.352 1.904l-.988 9.531a2.138 2.138 0 0 0 1.911 2.345zM24.365 272.708c-3.657 0-6.633 2.966-6.633 6.611 0 3.646 2.976 6.613 6.633 6.613 3.658 0 6.633-2.967 6.633-6.613 0-3.645-2.975-6.61-6.633-6.61zm0 8.952a2.347 2.347 0 0 1-2.347-2.341c0-1.29 1.053-2.34 2.347-2.34a2.346 2.346 0 0 1 2.348 2.34 2.347 2.347 0 0 1-2.348 2.341zM46.491 272.708c-3.657 0-6.633 2.966-6.633 6.611 0 3.646 2.975 6.613 6.633 6.613s6.634-2.967 6.634-6.613c0-3.645-2.976-6.61-6.634-6.61zm0 8.952a2.347 2.347 0 0 1-2.347-2.341c0-1.29 1.053-2.34 2.347-2.34a2.346 2.346 0 0 1 2.348 2.34 2.347 2.347 0 0 1-2.348 2.341z"/>
            <path d="M59.309 242.52a2.145 2.145 0 0 0-1.696-.83H14.901l-1.794-6.874a2.142 2.142 0 0 0-2.074-1.599H2.25a2.14 2.14 0 0 0-2.143 2.136c0 1.18.96 2.136 2.143 2.136h7.126l1.78 6.82c.008.037.018.075.029.113L17.8 269.78a2.142 2.142 0 0 0 2.074 1.598h31.107c.976 0 1.828-.657 2.074-1.598l6.631-25.417a2.13 2.13 0 0 0-.378-1.843zm-9.984 24.587H21.532l-5.517-21.145h38.827l-5.517 21.145zM27.016 235.05a2.14 2.14 0 0 0 1.515.626 2.14 2.14 0 0 0 1.516-.626 2.13 2.13 0 0 0-.001-3.02l-6.74-6.715a2.148 2.148 0 0 0-3.03 0 2.131 2.131 0 0 0 0 3.021l6.74 6.715zM42.335 235.675a2.14 2.14 0 0 0 1.516-.626l6.73-6.713a2.13 2.13 0 0 0-.002-3.02 2.148 2.148 0 0 0-3.03.001l-6.73 6.713a2.13 2.13 0 0 0 .002 3.02 2.14 2.14 0 0 0 1.514.625zM35.43 233.758a2.14 2.14 0 0 0 2.144-2.136l.002-9.486A2.14 2.14 0 0 0 35.434 220a2.14 2.14 0 0 0-2.144 2.135l-.002 9.486a2.14 2.14 0 0 0 2.142 2.137z"/>
        </g>
        <path fill="#F5A623" fill-rule="nonzero" d="M100.964 227.541c-14.044 13.259-14.68 35.39-1.422 49.434.233.248.47.491.71.731 13.657 13.657 35.798 13.657 49.454 0 13.657-13.655 13.657-35.797 0-49.453-13.377-13.39-34.98-13.705-48.742-.712zm6.708 15.053l6.923-6.923 10.385 10.385 10.385-10.385 6.924 6.923-10.385 10.389 10.386 10.381-6.924 6.924-10.385-10.385-10.386 10.385-6.923-6.924 10.385-10.381-10.385-10.389z"/>
        <g fill="#C9C9C9">
            <path d="M38.645 324.607s-.677-.432-1.129-.575c0 0-1.355-.576-1.58-.863 0 0-.527-.504-.226-1.007 0 0 .15-.36.677-.36 0 0 .753.072.753.576v.79h2.559v-1.15s.226-1.941-3.01-2.013c0 0-2.56-.144-3.237 1.15 0 0-.301.288-.301 1.295v.719s0 .863.451 1.366c0 0 .226.36.903.719 0 0 1.28.647 2.033 1.007 0 0 .752.431.677 1.078 0 0-.075.72-.828.647 0 0-.677 0-.677-.719v-.647H33v1.15s-.075 2.23 3.462 2.23c0 0 3.387.072 3.538-2.23v-1.006c-.15 0 0-1.438-1.355-2.157zM25.448 320l-.91 5.462h-.228L23.476 320h-4.324L19 330h2.503l.076-7.538h.152L23.097 330h2.73l1.366-7.538h.152L27.42 330H30l-.303-10zM10.51 320L9 330h2.47l.961-7.692h.206L13.53 330H16l-1.51-10zM66.466 324.528v1.366h.786v1.51c0 .718-.707.718-.707.718-.785 0-.785-.719-.785-.719V322.3c0-.503.706-.574.706-.574.707 0 .707.646.707.646v.79h2.67c.078-1.508-.236-1.868-.236-1.868-.628-1.365-3.14-1.293-3.14-1.293-3.848 0-3.456 2.73-3.456 2.73v4.96c.079 2.587 3.927 2.3 4.005 2.3 1.728-.144 2.199-.647 2.199-.647.47-.288.628-.79.628-.79.157-.288.157-1.079.157-1.079V324.6h-3.534v-.072zM57.673 326.077h-.146L55.055 320H52v10h2.473l-.146-6.077h.073L57.018 330H60v-10h-2.473zM46.292 327.26s0 .814-.677.814c0 0-.752.074-.752-.74v-7.26h-2.858v7.185s-.3 2.74 3.61 2.74c0 0 3.385.075 3.385-2.592V320h-2.708v7.26zM5.795 324.604s-.677-.431-1.129-.575c0 0-1.355-.576-1.58-.864 0 0-.527-.503-.226-1.007 0 0 .15-.36.677-.36 0 0 .753.072.753.576v.791h2.483v-1.15S7 320.071 3.763 320h-.602s-1.957.072-2.634 1.151c0 0-.301.288-.301 1.295v.72s0 .863.451 1.366c0 0 .226.36.904.72 0 0 1.279.647 2.032 1.007 0 0 .752.431.677 1.079 0 0-.075.72-.828.647 0 0-.677 0-.677-.719v-.647H0v1.15S-.075 330 3.462 330c0 0 3.387.073 3.537-2.23v-1.007s.075-1.438-1.204-2.158z"/>
        </g>
        <path fill="#6AC259" d="M221 218c-19.33 0-35 15.67-35 35s15.67 35 35 35c19.331 0 35-15.67 35-35s-15.67-35-35-35zm-6.42 52.979l-15.412-15.41 5.137-5.137 10.275 10.274 23.115-23.117 5.137 5.137-28.252 28.253z"/>
        <g fill-rule="nonzero">
            <path fill="#09539F" d="M42.442 21.532c0-.942.755-1.709 1.684-1.709.927 0 1.682.767 1.682 1.709 0 .944-.755 1.712-1.682 1.712-.929 0-1.684-.768-1.684-1.712zm2.957 0c0-.799-.57-1.379-1.273-1.379-.705 0-1.273.58-1.273 1.379 0 .802.568 1.38 1.273 1.38.703 0 1.273-.578 1.273-1.38zm-1.923-.975h.71c.455 0 .705.16.705.569 0 .332-.188.492-.5.521l.512.847h-.363l-.493-.834h-.215v.834h-.356v-1.937zm.356.83h.313c.206 0 .391-.031.391-.29 0-.23-.204-.266-.387-.266h-.317v.556z"/>
            <path fill="#F37226" d="M24.036.154c-2.6 0-4.79 1.775-5.466 4.196a5.93 5.93 0 0 0-.126.553L13.218 27.91h7.759c2.658 0 4.89-1.856 5.51-4.363h.002L31.803.155h-7.767z"/>
            <path fill="#53B949" d="M36.938 4.78c-2.427 0-4.498 1.549-5.31 3.725a20.33 20.33 0 0 0-.187.571l-3.227 14.208h7.76c2.666 0 4.903-1.867 5.516-4.385l-.001.001 3.207-14.12h-7.758z"/>
            <path fill="#09539F" d="M3.647 8.745a4.12 4.12 0 0 0-.049.156l-.124.494L.32 23.283h7.947c2.376 0 4.397-1.53 5.167-3.673l.3-1.322L16.8 4.781H9.043c-2.515 0-4.648 1.662-5.396 3.964z"/>
            <path fill="#FFF" d="M5.582 9.905c-.438.367-.719.816-.802 1.174l-1.641 7.53.092-.002c.512 0 .993-.183 1.429-.549.437-.364.715-.81.826-1.327l.42-1.913H9.43c.51 0 .993-.185 1.435-.55.442-.366.723-.815.832-1.334l.02-.095H6.343l.328-1.507h5.092c.513 0 .993-.183 1.43-.546.435-.363.707-.821.827-1.336l.02-.096-7.03-.001c-.51.002-.992.187-1.428.552M41.46 9.802c-.283-.288-.652-.433-1.097-.433h-7.024l-.013.062c-.027.14-.041.27-.041.394 0 .436.142.803.425 1.09.284.288.652.433 1.098.433h1.517l-1.523 7.263h.095c.51 0 .989-.183 1.424-.546.435-.364.709-.811.813-1.329l1.128-5.388h3.571l.012-.064c.028-.132.04-.27.04-.405 0-.43-.143-.791-.425-1.077M26.045 9.356h-4.749l.002-.005h-1.951L17.41 18.61h.094c.51 0 .99-.185 1.424-.55.435-.363.709-.81.815-1.328l.394-1.903h4.793c.51 0 .99-.184 1.425-.545.433-.362.711-.812.826-1.339l.361-1.673c.026-.131.04-.269.04-.408 0-.427-.145-.79-.432-1.077-.288-.286-.66-.431-1.105-.431zm-5.169 1.979h4.703l-.323 1.515h-4.707l.327-1.515z"/>
            <g fill="#FFF">
                <path d="M49.877 16.198c.51.263 1.328.523 2.156.523.892 0 1.366-.36 1.366-.909 0-.525-.408-.825-1.442-1.174-1.429-.498-2.373-1.272-2.373-2.495 0-1.435 1.237-2.52 3.254-2.52.982 0 1.684.188 2.195.423l-.436 1.523a4.096 4.096 0 0 0-1.785-.4c-.842 0-1.25.386-1.25.811 0 .537.471.773 1.595 1.186 1.518.549 2.22 1.324 2.22 2.508 0 1.408-1.097 2.607-3.458 2.607-.983 0-1.951-.262-2.437-.524l.395-1.559zM56.588 9.288h1.94v3.506h.023c.205-.275.46-.488.767-.637.294-.15.651-.237 1.008-.237 1.238 0 2.183.836 2.183 2.682v3.555h-1.94v-3.355c0-.8-.28-1.347-1.007-1.347-.512 0-.83.324-.97.674-.052.111-.064.273-.064.41v3.618h-1.94v-8.87zM66.936 18.296c-1.825 0-3.228-1.175-3.228-3.144 0-1.97 1.327-3.232 3.343-3.232 1.902 0 3.176 1.286 3.176 3.132 0 2.222-1.62 3.244-3.278 3.244h-.013zm.05-1.36c.767 0 1.237-.738 1.237-1.836 0-.897-.356-1.821-1.237-1.821-.918 0-1.274.924-1.274 1.834 0 1.035.445 1.823 1.262 1.823h.012zM71.428 14.103c0-.799-.026-1.472-.051-2.047h1.685l.086.849h.028c.458-.636 1.174-.986 2.08-.986 1.365 0 2.589 1.16 2.589 3.107 0 2.22-1.44 3.269-2.832 3.269-.753 0-1.339-.3-1.62-.699h-.028v3.032H71.43v-6.525h-.001zm1.937 1.435c0 .149.015.274.04.4.127.51.573.896 1.135.896.841 0 1.34-.686 1.34-1.72 0-.974-.447-1.71-1.314-1.71-.55 0-1.034.4-1.161.96-.025.1-.04.225-.04.338v.836z"/>
            </g>
        </g>
        <g fill-rule="nonzero">
            <path fill="#09539F" d="M45.244 57.07c0-1.009.806-1.83 1.796-1.83.988 0 1.793.821 1.793 1.83 0 1.011-.805 1.834-1.793 1.834-.99 0-1.796-.823-1.796-1.834zm3.153 0c0-.856-.608-1.477-1.357-1.477-.752 0-1.357.621-1.357 1.477 0 .859.605 1.48 1.357 1.48.749-.002 1.357-.621 1.357-1.48zm-2.05-1.045h.757c.485 0 .751.173.751.61 0 .356-.2.527-.532.558l.545.908h-.387l-.525-.894h-.23v.894h-.379v-2.076zm.38.89h.333c.22 0 .417-.034.417-.31 0-.247-.217-.286-.413-.286h-.337v.595z"/>
            <path fill="#F37226" d="M25.624 34.165c-2.771 0-5.107 1.902-5.828 4.495a6.38 6.38 0 0 0-.134.594l-5.571 24.65h8.271c2.834 0 5.213-1.99 5.874-4.675h.002l5.665-25.064h-8.28z"/>
            <path fill="#53B949" d="M39.378 39.122c-2.588 0-4.795 1.659-5.662 3.99-.045.12-.198.613-.198.613l-3.44 15.222h8.271c2.843 0 5.227-2 5.88-4.698v.001l3.418-15.128h-8.27z"/>
            <path fill="#09539F" d="M3.888 43.37a4.43 4.43 0 0 0-.052.166l-.132.53L.34 58.946h8.472c2.533 0 4.687-1.64 5.508-3.935l.32-1.417 3.27-14.472H9.64c-2.682 0-4.955 1.781-5.753 4.247z"/>
            <path fill="#FFF" d="M5.95 44.613c-.467.393-.766.873-.854 1.258l-1.75 8.068.098-.002c.546 0 1.059-.197 1.524-.589.466-.39.762-.869.88-1.422l.449-2.05h3.756c.544 0 1.058-.197 1.53-.59.47-.39.77-.872.886-1.428l.021-.102H6.762l.35-1.615h5.428c.546 0 1.058-.196 1.524-.585a2.6 2.6 0 0 0 .882-1.431l.021-.103-7.493-.001c-.546.002-1.059.2-1.524.592M44.198 44.502c-.302-.308-.695-.464-1.17-.464H35.54l-.013.067c-.03.15-.044.29-.044.422 0 .467.152.86.454 1.168.302.308.694.464 1.17.464h1.617l-1.623 7.78h.1c.545 0 1.055-.195 1.519-.584.463-.39.755-.869.866-1.424l1.202-5.772h3.808l.012-.069c.03-.141.043-.288.043-.434 0-.46-.153-.848-.453-1.154M27.765 44.024h-5.062l.001-.006h-2.08L18.56 53.94h.1c.544 0 1.055-.198 1.518-.59.463-.388.756-.867.869-1.422l.42-2.039h5.11c.543 0 1.054-.197 1.519-.584.461-.387.758-.87.88-1.434l.385-1.793c.028-.14.042-.288.042-.437 0-.457-.154-.846-.46-1.154-.307-.306-.703-.462-1.178-.462zm-5.51 2.12h5.013l-.344 1.624h-5.018l.349-1.623z"/>
        </g>
        <g fill="#000">
            <path fill-rule="nonzero" d="M53.17 51.355c.545.282 1.416.56 2.299.56.951 0 1.456-.386 1.456-.973 0-.563-.435-.884-1.537-1.258-1.523-.534-2.53-1.363-2.53-2.674 0-1.537 1.32-2.7 3.47-2.7 1.046 0 1.795.201 2.339.454l-.464 1.632a4.348 4.348 0 0 0-1.904-.428c-.897 0-1.333.413-1.333.868 0 .575.504.828 1.701 1.27 1.619.588 2.367 1.419 2.367 2.687 0 1.51-1.17 2.794-3.687 2.794-1.047 0-2.08-.28-2.598-.562l.422-1.67zM60.325 43.951h2.067v3.757h.026c.218-.295.49-.523.818-.683.312-.16.693-.253 1.073-.253 1.32 0 2.328.895 2.328 2.873v3.81H64.57v-3.596c0-.856-.3-1.443-1.075-1.443-.545 0-.884.348-1.034.722-.055.12-.068.293-.068.44v3.876h-2.068v-9.503zM71.356 53.603c-1.945 0-3.441-1.259-3.441-3.368 0-2.112 1.415-3.463 3.564-3.463 2.027 0 3.386 1.377 3.386 3.355 0 2.38-1.727 3.476-3.494 3.476h-.015zm.054-1.458c.818 0 1.319-.79 1.319-1.966 0-.962-.38-1.952-1.319-1.952-.979 0-1.359.99-1.359 1.966 0 1.109.475 1.952 1.345 1.952h.014zM76.145 49.11c0-.856-.027-1.577-.055-2.193h1.796l.093.91h.03c.488-.682 1.25-1.056 2.217-1.056 1.454 0 2.76 1.243 2.76 3.328 0 2.379-1.536 3.503-3.019 3.503-.803 0-1.427-.321-1.728-.749h-.029v3.248h-2.064V49.11h-.001zm2.064 1.538c0 .16.017.294.043.429.136.546.612.96 1.21.96.897 0 1.428-.736 1.428-1.844 0-1.043-.476-1.83-1.4-1.83-.585 0-1.102.427-1.238 1.028-.026.107-.043.24-.043.36v.897z"/>
            <text font-family="Arial-BoldMT, Arial" font-size="7" font-weight="bold" transform="translate(52.359 43.874)">
                <tspan x="30.627" y="9.393">.com.vn</tspan>
            </text>
        </g>
        <path d="M36 124h24v24H36z"/>
        <path fill="#C9C9C9" fill-rule="nonzero" d="M52.1 124.8h-8a2.5 2.5 0 0 0-2.5 2.5v17a2.5 2.5 0 0 0 2.5 2.5h8a2.5 2.5 0 0 0 2.5-2.5v-17a2.5 2.5 0 0 0-2.5-2.5zm-4 21c-.83 0-1.5-.67-1.5-1.5s.67-1.5 1.5-1.5 1.5.67 1.5 1.5-.67 1.5-1.5 1.5zm4.5-4h-9v-14h9v14z"/>
        <g transform="translate(98 124)">
            <mask id="b" fill="#fff">
                <use xlink:href="#a"/>
            </mask>
            <path fill="#C9C9C9" fill-rule="nonzero" d="M20 18c1.1 0 2-.9 2-2V6c0-1.1-.9-2-2-2H4c-1.1 0-2 .9-2 2v10c0 1.1.9 2 2 2H0v2h24v-2h-4zM4 6h16v10H4V6z" mask="url(#b)"/>
        </g>
        <path d="M66 124h24v24H66z"/>
        <g fill="#C9C9C9" fill-rule="nonzero">
            <path d="M69.779 133.286c-1.776 3.007-.647 7.571 1.317 10.338.98 1.384 1.972 2.626 3.331 2.626.026 0 .051 0 .078-.002.638-.025 1.1-.217 1.546-.402.5-.208 1.019-.424 1.832-.424.773 0 1.266.209 1.743.41.47.199.955.404 1.67.391 1.531-.028 2.471-1.368 3.3-2.55a11.186 11.186 0 0 0 1.447-2.89l.005-.019a.167.167 0 0 0-.091-.206l-.013-.005c-.27-.108-2.634-1.132-2.659-3.923-.023-2.267 1.774-3.468 2.135-3.686l.016-.01a.165.165 0 0 0 .049-.236c-1.24-1.772-3.142-2.039-3.907-2.07a3.53 3.53 0 0 0-.34-.017c-.9 0-1.761.331-2.453.598-.478.184-.89.342-1.175.342-.32 0-.735-.16-1.215-.346-.643-.25-1.37-.531-2.142-.531H74.2c-1.793.026-3.486 1.027-4.42 2.612z"/>
            <path d="M81.58 125.75c-1.086.044-2.388.696-3.166 1.586-.662.747-1.308 1.994-1.138 3.251a.17.17 0 0 0 .157.146c.074.005.149.008.223.008 1.061 0 2.206-.573 2.988-1.496.823-.974 1.24-2.225 1.114-3.345a.172.172 0 0 0-.178-.15z"/>
        </g>
        <path d="M165 124h24v24h-24z"/>
        <path fill="#C9C9C9" fill-rule="nonzero" d="M186 128h-18c-1.1 0-2 .9-2 2v12c0 1.1.9 2 2 2h18c1.1 0 1.99-.9 1.99-2l.01-12c0-1.1-.9-2-2-2zm-2 14h-14v-12h14v12z"/>
        <path d="M132 124h24v24h-24z" opacity=".1"/>
        <path fill="#C9C9C9" fill-rule="nonzero" d="M144.2 126.4a9 9 0 0 0-9 9v7c0 1.66 1.34 3 3 3h3v-8h-4v-2c0-3.87 3.13-7 7-7s7 3.13 7 7v2h-4v8h3c1.66 0 3-1.34 3-3v-7a9 9 0 0 0-9-9zM218.07 128.31c0-1.05-.85-1.91-1.9-1.91h-7.64l-5.73 5.73v11.46c0 1.05.86 1.91 1.91 1.91h11.47c1.05 0 1.9-.86 1.9-1.91l-.01-15.28zm-10.495 14.325h-1.91v-1.91h1.91v1.91zm7.64 0h-1.91v-3.82h1.91v3.82zm-7.64-1.91h-1.91v-5.73h1.91v5.73zm3.82 1.91h-1.91v-5.73h1.91v5.73zm0-5.73h-1.91v-1.91h1.91v1.91zm3.82 1.91h-1.91v-3.82h1.91v3.82z"/>
        <path d="M198 124h24v24h-24zM7 123h24v24H7z"/>
        <path fill="#C9C9C9" fill-rule="nonzero" d="M28.41 135.38l-9-9c-.36-.36-.86-.58-1.41-.58h-7c-1.1 0-2 .9-2 2v7c0 .55.22 1.05.59 1.42l9 9c.36.36.86.58 1.41.58.55 0 1.05-.22 1.41-.59l7-7c.37-.36.59-.86.59-1.41 0-.55-.23-1.06-.59-1.42zM12.5 130.8c-.83 0-1.5-.67-1.5-1.5s.67-1.5 1.5-1.5 1.5.67 1.5 1.5-.67 1.5-1.5 1.5z"/>
        <path d="M228 124h24v24h-24z"/>
        <path fill="#C9C9C9" d="M240 143.759l-3.4 2.703-1.16-4.185-4.34.189 1.52-4.068L229 136l3.62-2.398-1.52-4.068 4.34.189 1.16-4.185 3.4 2.703 3.4-2.703 1.16 4.185 4.34-.189-1.52 4.068L251 136l-3.62 2.398 1.52 4.068-4.34-.189-1.16 4.185-3.4-2.703zm-4-9.918c0 .65.144 1.138.432 1.46a1.39 1.39 0 0 0 1.082.483 1.43 1.43 0 0 0 1.1-.49c.299-.328.448-.794.448-1.4 0-.621-.148-1.092-.442-1.413a1.45 1.45 0 0 0-1.116-.481c-.488 0-.861.179-1.118.537-.257.358-.386.793-.386 1.304zm1.533 5.703h.728l3.901-7.544h-.713l-3.916 7.544zm3.096-1.943c0 .647.144 1.133.432 1.457.288.324.649.486 1.082.486.439 0 .808-.164 1.106-.49.297-.328.446-.794.446-1.4 0-.621-.147-1.093-.442-1.413a1.45 1.45 0 0 0-1.115-.481c-.492 0-.866.178-1.123.534-.258.357-.386.792-.386 1.307z"/>
        <path fill="#C9C9C9" fill-rule="nonzero" d="M305.76 127.2h-14.72c-1.012 0-1.84.828-1.84 1.84v11.04c0 1.012.828 1.84 1.84 1.84h12.88l3.68 3.68v-16.56c0-1.012-.828-1.84-1.84-1.84zm-1.84 11.04h-11.04v-1.84h11.04v1.84zm0-2.76h-11.04v-1.84h11.04v1.84zm0-2.76h-11.04v-1.84h11.04v1.84z"/>
        <path d="M286 124h24v24h-24zM256 124h24v24h-24z"/>
        <path fill="#C9C9C9" fill-rule="nonzero" d="M270 126h-8c-1.1 0-1.99.9-1.99 2l-.01 16c0 1.1.89 2 1.99 2H274c1.1 0 2-.9 2-2v-12l-6-6zm2 16h-8v-2h8v2zm0-4h-8v-2h8v2zm-3-5v-5.5l5.5 5.5H269z"/>
        <g fill="#C9C9C9">
            <path fill-rule="nonzero" d="M326.846 130.57c.82-2.42 3.155-4.17 5.911-4.17h8.499l-3.36 14.212-.329 1.39c-.843 2.255-3.058 3.865-5.66 3.865H323.2l3.456-14.612.136-.52a4.21 4.21 0 0 1 .054-.164zm2.119 1.222c-.48.386-.787.858-.878 1.235l-1.798 7.923.1-.002c.56 0 1.088-.193 1.566-.578.48-.384.784-.853.905-1.396l.46-2.014h3.86c.56 0 1.089-.194 1.573-.578.484-.385.792-.858.911-1.404l.022-.1h-5.888l.36-1.585h5.579c.561 0 1.087-.192 1.566-.575.477-.382.775-.863.906-1.405l.022-.101-7.7-.001c-.561.002-1.089.196-1.566.58z"/>
        </g>
        <g>
            <g transform="translate(26 72)">
                <rect width="35" height="35" rx="2"/>
                <path fill="#FFF" d="M15.429 25c0 .426-.156.794-.467 1.105a1.51 1.51 0 0 1-1.105.466 1.51 1.51 0 0 1-1.105-.466A1.51 1.51 0 0 1 12.286 25c0-.426.155-.794.466-1.105a1.51 1.51 0 0 1 1.105-.466c.426 0 .794.155 1.105.466.311.311.467.68.467 1.105zm11 0c0 .426-.156.794-.467 1.105a1.51 1.51 0 0 1-1.105.466 1.51 1.51 0 0 1-1.105-.466A1.51 1.51 0 0 1 23.286 25c0-.426.155-.794.466-1.105a1.51 1.51 0 0 1 1.105-.466c.426 0 .794.155 1.105.466.311.311.467.68.467 1.105zM28 11.643v6.286c0 .196-.068.37-.203.521a.776.776 0 0 1-.497.264l-12.817 1.498c.107.491.16.778.16.86 0 .13-.098.392-.295.785h11.295c.213 0 .397.078.552.233.156.156.234.34.234.553a.755.755 0 0 1-.234.552.755.755 0 0 1-.552.234H13.07a.755.755 0 0 1-.552-.234.755.755 0 0 1-.233-.552c0-.09.032-.22.098-.387.065-.168.13-.315.196-.442s.154-.29.264-.49c.11-.201.174-.322.19-.363l-2.172-10.104H8.357a.755.755 0 0 1-.552-.233.755.755 0 0 1-.234-.553c0-.212.078-.397.234-.552a.755.755 0 0 1 .552-.233H11.5a.747.747 0 0 1 .59.27c.057.073.11.174.159.3.049.127.082.234.098.32a64.975 64.975 0 0 1 .123.681h14.744c.213 0 .397.078.553.233.155.156.233.34.233.553z"/>
            </g>
        </g>
        <g fill="#FFF">
            <path d="M162.502 92h-.794l-.276-.274A6.47 6.47 0 0 0 163 87.5a6.5 6.5 0 1 0-6.5 6.5 6.47 6.47 0 0 0 4.225-1.566l.276.274v.792l4.998 4.991L167.49 97l-4.988-5zm-6.002 0a4.5 4.5 0 1 1 0-9 4.5 4.5 0 0 1 0 9z"/>
        </g>
        <g fill="#000" opacity=".501">
            <path d="M80.502 92h-.794l-.276-.274A6.47 6.47 0 0 0 81 87.5a6.5 6.5 0 1 0-6.5 6.5 6.47 6.47 0 0 0 4.225-1.566l.276.274v.792l4.998 4.991L85.49 97l-4.988-5zM74.5 92a4.5 4.5 0 1 1 0-9 4.5 4.5 0 0 1 0 9z"/>
        </g>
        <g fill="#EBEBEB">
            <path d="M4 95h18v-2H4v2zm0-6h18v-2H4v2zm0-8v2h18v-2H4z"/>
        </g>
        <g>
            <g transform="translate(97 82)">
                <circle cx="7.5" cy="7.5" r="7.5" fill="#F5A623"/>
                <path fill="#FFF" fill-rule="nonzero" d="M9.271 4.695l1.184 1.184L7.932 8.4 5.864 6.334l-3.83 3.835.729.73 3.101-3.102 2.068 2.067 3.257-3.251 1.184 1.184V4.695z"/>
                <path d="M1 1.593h12.407V14H1z"/>
            </g>
        </g>
        <g fill="#EBEBEB">
            <path d="M81.797 174.5a.494.494 0 0 1-.156.36L75.5 181l6.14 6.14a.494.494 0 0 1 0 .72l-.78.78a.494.494 0 0 1-.72 0l-7.28-7.28a.494.494 0 0 1 0-.72l7.28-7.28a.494.494 0 0 1 .72 0l.78.78a.494.494 0 0 1 .157.36z"/>
        </g>
        <g fill="#D0021B">
            <path fill-rule="nonzero" d="M17.991 188.205a.87.87 0 0 1-.266.763l-2.535 2.517a1.426 1.426 0 0 1-.447.324 1.85 1.85 0 0 1-.543.172c-.013 0-.051.003-.115.01-.063.006-.146.009-.248.009-.241 0-.632-.041-1.172-.124-.54-.083-1.2-.286-1.981-.61-.782-.324-1.668-.81-2.658-1.459-.991-.648-2.046-1.538-3.164-2.67-.889-.876-1.626-1.715-2.21-2.516a17.935 17.935 0 0 1-1.41-2.222 11.968 11.968 0 0 1-.8-1.85 9.818 9.818 0 0 1-.363-1.43c-.063-.4-.089-.714-.076-.943.013-.229.02-.356.02-.382.025-.177.082-.359.17-.543.09-.184.198-.334.325-.448l2.534-2.536a.84.84 0 0 1 .61-.267.71.71 0 0 1 .438.143c.127.095.235.213.324.353l2.039 3.87a.928.928 0 0 1 .095.668c-.05.241-.159.445-.324.61l-.933.934a.318.318 0 0 0-.067.124.47.47 0 0 0-.029.143c.051.267.165.572.343.916.153.305.388.676.705 1.115.318.439.769.944 1.353 1.516.572.585 1.08 1.04 1.525 1.363.444.324.816.563 1.114.715.299.153.528.245.686.277l.239.047c.025 0 .066-.01.123-.028a.318.318 0 0 0 .124-.067l1.086-1.106c.23-.203.496-.305.8-.305.217 0 .388.038.515.114h.02l3.677 2.174c.267.166.426.375.476.63z"/>
        </g>
        <path fill="#FFF" d="M132 84l6 6h-12l6-6zm-3 6h6v6h-6v-6z" opacity=".9"/>
        <g>
            <path fill="#C9C9C9" fill-rule="nonzero" d="M51.355 176.645a8.958 8.958 0 0 0-6.36-2.645c-4.976 0-8.995 4.03-8.995 9.006 0 4.975 4.019 9.005 8.994 9.005 4.2 0 7.7-2.87 8.702-6.754h-2.341a6.744 6.744 0 0 1-6.36 4.503 6.76 6.76 0 0 1-6.755-6.754 6.76 6.76 0 0 1 6.754-6.755c1.869 0 3.535.777 4.75 2.004l-3.624 3.625H54V174l-2.645 2.645z"/>
            <path d="M33 171h24v24H33z"/>
        </g>
    </g>
</svg>
