<svg xmlns="http://www.w3.org/2000/svg" xmlns:xlink="http://www.w3.org/1999/xlink" width="281" height="124" viewBox="0 0 281 124">
    <defs>
        <path id="a" d="M0 0h21v21H0z"/>
        <path id="b" d="M1 0H0v8h2V2h6V0H1z"/>
        <path id="c" d="M6 5H5v8h2V7h6V5H6z"/>
        <path id="d" d="M-.418 5.73h14v2h-14z"/>
        <rect id="e" width="30" height="30" rx="2"/>
        <rect id="f" width="30" height="30" rx="2"/>
    </defs>
    <g fill="none" fill-rule="evenodd">
        <g fill-rule="nonzero">
            <path fill="#FFF" d="M68.644 52.603h-3.043a.171.171 0 0 1-.17-.167v-7.88c0-.09.078-.168.17-.168h3.04c.09 0 .168.077.168.167v7.881a.165.165 0 0 1-.165.167z"/>
            <path fill="#979797" d="M80.061 51.098l.915-5.753c.004-.022.004-.039.004-.06 0-1.21-.992-2.193-2.215-2.193h-3.439v-2.45c0-1.033-.303-1.775-.906-2.213-.954-.69-2.263-.296-2.32-.279a.387.387 0 0 0-.273.37v2.75c0 2.17-2.54 2.908-2.65 2.938a.362.362 0 0 0-.134.068.735.735 0 0 0-.572-.274h-2.697a.73.73 0 0 0-.733.725v7.542c0 .399.33.725.733.725h2.697a.736.736 0 0 0 .633-.36c.399.377.937.604 1.526.604h6.8c1.504-.004 2.462-.78 2.631-2.14zM68.42 52.213h-2.593v-7.439h2.593v7.44zm.785-1.167V44.96c.06.012.121.012.186-.005.13-.034 3.222-.922 3.222-3.685v-2.437c.338-.051.924-.081 1.344.223.39.284.585.815.585 1.588v2.844c0 .215.178.39.395.39h3.833a1.42 1.42 0 0 1 1.427 1.386l-.91 5.727v.013c-.122.97-.742 1.459-1.852 1.459h-6.8a1.43 1.43 0 0 1-1.43-1.416z"/>
        </g>
        <path fill="#000" d="M14.502 13h-.794l-.276-.274A6.47 6.47 0 0 0 15 8.5 6.5 6.5 0 1 0 8.5 15a6.47 6.47 0 0 0 4.225-1.566l.276.274v.792l4.998 4.991L19.49 18l-4.988-5zM8.5 13a4.5 4.5 0 1 1 0-9 4.5 4.5 0 0 1 0 9z" opacity=".501"/>
        <path d="M62 61h24v24H62z"/>
        <path fill="#FFF" fill-rule="nonzero" d="M82 72H69.83l5.59-5.59L74 65l-8 8 8 8 1.41-1.41L69.83 74H82z"/>
        <path fill="#FFF" d="M179.586 13.243l-4.95-4.95-2.121 2.121 5.303 5.304 1.768 1.767 9.9-9.9-2.122-2.12-7.778 7.778z"/>
        <path fill="#CECECE" d="M54 119.046L44.73 124l1.77-10.492-7.5-7.431 10.365-1.53L54 95l4.635 9.546L69 106.077l-7.5 7.43L63.27 124z"/>
        <text fill="#EBEBEB" font-family="FontAwesome" font-size="48" transform="translate(-1 -1)">
            <tspan x="133" y="62"></tspan>
        </text>
        <path fill="#C8C8C8" d="M173 43.879l-5.303-5.304-2.122 2.122L170.88 46l-5.304 5.303 2.122 2.122L173 48.12l5.303 5.304 2.122-2.122L175.12 46l5.304-5.303-2.122-2.122L173 43.88z"/>
        <path fill="#545454" fill-rule="nonzero" d="M209.99 36c-5.52 0-9.99 4.48-9.99 10s4.47 10 9.99 10c5.53 0 10.01-4.48 10.01-10s-4.48-10-10.01-10zm.01 18c-4.42 0-8-3.58-8-8s3.58-8 8-8 8 3.58 8 8-3.58 8-8 8z"/>
        <path d="M198 34h24v24h-24z"/>
        <path fill="#545454" fill-rule="nonzero" d="M210.5 41H209v6l5.25 3.15.75-1.23-4.5-2.67z"/>
        <text fill="#EBEBEB" font-family="FontAwesome" font-size="48" transform="translate(-1 -1)">
            <tspan x="102" y="62"></tspan>
        </text>
        <path d="M99-1h18.75v18.462H99z"/>
        <path fill="#34A105" fill-rule="nonzero" d="M115.727 8.523L108.695 1.6a1.565 1.565 0 0 0-1.101-.446h-5.469c-.86 0-1.563.692-1.563 1.538v5.385c0 .423.172.808.461 1.092l7.032 6.923c.28.277.672.446 1.101.446.43 0 .82-.169 1.102-.453l5.469-5.385c.289-.277.46-.662.46-1.085 0-.423-.18-.815-.46-1.092zM103.297 5a1.161 1.161 0 0 1-1.172-1.154c0-.638.523-1.154 1.172-1.154.648 0 1.172.516 1.172 1.154 0 .639-.524 1.154-1.172 1.154z"/>
        <text fill="#9B9B9B" font-family="FontAwesome" font-size="20" transform="translate(-1 -1)">
            <tspan x="67" y="18"></tspan>
        </text>
        <g transform="translate(132)">
            <use fill="#FFF" xlink:href="#a"/>
            <path stroke="#CBCBCB" d="M.5.5h20v20H.5z"/>
        </g>
        <g transform="rotate(-90 76.5 -59.5)">
            <use fill="#D8D8D8" xlink:href="#b"/>
            <path stroke="#979797" d="M.5.5v7h1v-6h6v-1h-7z"/>
        </g>
        <g transform="rotate(90 77.5 76.5)">
            <use fill="#D8D8D8" xlink:href="#c"/>
            <path stroke="#979797" d="M5.5 5.5v7h1v-6h6v-1h-7z"/>
        </g>
        <g transform="rotate(-44 79.22 -159.915)">
            <use fill="#D8D8D8" xlink:href="#d"/>
            <path stroke="#979797" d="M.082 6.23h13v1h-13z"/>
        </g>
        <path fill="#6AC259" d="M213 4a7 7 0 1 0 0 14 7 7 0 0 0 0-14zm-1.284 10.596l-3.082-3.082 1.027-1.028 2.055 2.055 4.623-4.623 1.027 1.027-5.65 5.65z"/>
        <path fill="#999" fill-rule="nonzero" d="M217.333 83.684l-5.85-2.906a1.982 1.982 0 0 0-.868-.22c-.736-.001-1.479.551-1.479 1.787v5.43c0 1.237.751 1.79 1.496 1.79.279 0 .572-.075.877-.224l5.782-2.902c.652-.32 1.026-.828 1.026-1.397 0-.556-.36-1.052-.984-1.358zm-6.7 5.104l-.002-.775h.001v.775zm.192-.838a.78.78 0 0 1-.12.048.957.957 0 0 1-.023-.222v-5.43c0-.097.01-.168.02-.218.026.01.06.022.099.043l5.798 2.88-5.774 2.899zm16.857-14.914h-29.364A2.326 2.326 0 0 0 196 75.363v18.62a2.326 2.326 0 0 0 2.318 2.327h11.591v3.103h-3.09v1.551h12.363v-1.551h-3.091V96.31h11.59A2.326 2.326 0 0 0 230 93.982v-18.62a2.326 2.326 0 0 0-2.318-2.326zm-13.137 26.377h-3.09V96.31h3.09v3.103zm13.91-5.43a.775.775 0 0 1-.773.775h-29.364a.775.775 0 0 1-.773-.776v-18.62c0-.427.347-.775.773-.775h29.364c.426 0 .773.348.773.776v18.62z"/>
        <g transform="translate(117 71)">
            <use fill="#FFF" xlink:href="#e"/>
            <rect width="29" height="29" x=".5" y=".5" stroke="#EBEBEB" rx="2"/>
        </g>
        <path fill="#666" d="M122 76h8.333v8.333H122zM122 87.667h8.333V96H122zM133.667 76H142v8.333h-8.333zM133.667 87.667H142V96h-8.333z"/>
        <g>
            <g transform="translate(148 71)">
                <use fill="#FFF" xlink:href="#f"/>
                <rect width="29" height="29" x=".5" y=".5" stroke="#EBEBEB" rx="2"/>
            </g>
            <path fill="#666" d="M153 76.833h20V81h-20zM153 84.333h20V88.5h-20zM153 91.833h20V96h-20z"/>
        </g>
        <g fill="#000" opacity=".4">
            <g fill-rule="nonzero">
                <path d="M245 75h2v23h-2zM276 75h2v23h-2zM279 78h2v18h-2zM242 78h2v18h-2zM248 73v27h27V73h-27zm25 25.364h-23V74.636h23v23.728z"/>
            </g>
        </g>
        <text fill="#9B9B9B" font-family="FontAwesome" font-size="20" transform="translate(-1 -1)">
            <tspan x="34" y="19"></tspan>
        </text>
        <path fill="#F5A623" d="M15 119.046L5.73 124l1.77-10.492-7.5-7.431 10.365-1.53L15 95l4.635 9.546L30 106.077l-7.5 7.43L24.27 124z"/>
        <path fill="#CECECE" d="M39 76.096L33.438 79l1.062-6.15-4.5-4.357 6.219-.897L39 62l2.781 5.596 6.219.897-4.5 4.356L44.562 79zM88.5 105.95L84.483 108l.767-4.342-3.25-3.074 4.491-.634L88.5 96l2.009 3.95 4.491.634-3.25 3.074.767 4.342z"/>
        <path fill="#F5A623" d="M13 76.096L7.438 79 8.5 72.85 4 68.492l6.219-.897L13 62l2.781 5.596 6.219.897-4.5 4.356L18.562 79z"/>
        <path fill="#CECECE" d="M35 51.438L30.056 54 31 48.573l-4-3.844 5.528-.791L35 39l2.472 4.938 5.528.791-4 3.844.944 5.427z"/>
        <path fill="#F5A623" d="M12 51.438L7.056 54 8 48.573l-4-3.844 5.528-.791L12 39l2.472 4.938 5.528.791-4 3.844.944 5.427z"/>
    </g>
</svg>
